<svg width="24" height="24" viewBox="0 0 24 24" fill="none" xmlns="http://www.w3.org/2000/svg">
<path d="M23.0062 5.74687L18.375 3.10312C18.2612 3.03637 18.1319 3.0008 18 3H15C14.8011 3 14.6103 3.07902 14.4697 3.21967C14.329 3.36032 14.25 3.55109 14.25 3.75C14.25 4.34674 14.0129 4.91903 13.591 5.34099C13.169 5.76295 12.5967 6 12 6C11.4033 6 10.831 5.76295 10.409 5.34099C9.98705 4.91903 9.75 4.34674 9.75 3.75C9.75 3.55109 9.67098 3.36032 9.53033 3.21967C9.38968 3.07902 9.19891 3 9 3H6C5.86811 3.0008 5.73876 3.03637 5.625 3.10312L0.99375 5.74687C0.659819 5.93497 0.411171 6.24446 0.29944 6.61108C0.18771 6.97769 0.221485 7.37326 0.39375 7.71563L2.11875 11.175C2.24383 11.4232 2.43542 11.6318 2.67215 11.7775C2.90887 11.9232 3.18142 12.0002 3.45937 12H5.25V19.5C5.25 19.8978 5.40803 20.2794 5.68934 20.5607C5.97064 20.842 6.35217 21 6.75 21H17.25C17.6478 21 18.0294 20.842 18.3107 20.5607C18.592 20.2794 18.75 19.8978 18.75 19.5V12H20.5406C20.8186 12.0002 21.0911 11.9232 21.3279 11.7775C21.5646 11.6318 21.7562 11.4232 21.8812 11.175L23.6062 7.71563C23.7785 7.37326 23.8123 6.97769 23.7006 6.61108C23.5888 6.24446 23.3402 5.93497 23.0062 5.74687ZM3.45937 10.5L1.73437 7.05L5.25 5.04375V10.5H3.45937ZM20.5406 10.5H18.75V5.04375L22.2656 7.05L20.5406 10.5Z" fill="#F7F7F7"/>
</svg>
