<svg width="28" height="28" viewBox="0 0 28 28" fill="none" xmlns="http://www.w3.org/2000/svg">
<path d="M26.2375 10.85C25.7625 10.3625 25.275 9.85 25.0875 9.4125C24.9 8.975 24.9125 8.325 24.9 7.6625C24.8875 6.45 24.8625 5.0625 23.9 4.1C22.9375 3.1375 21.55 3.1125 20.3375 3.1C19.675 3.0875 19 3.075 18.5875 2.9125C18.175 2.75 17.6375 2.2375 17.15 1.7625C16.2875 0.9375 15.3 0 14 0C12.7 0 11.7125 0.9375 10.85 1.7625C10.3625 2.2375 9.85 2.725 9.4125 2.9125C8.975 3.1 8.325 3.0875 7.6625 3.1C6.45 3.1125 5.0625 3.1375 4.1 4.1C3.1375 5.0625 3.1125 6.45 3.1 7.6625C3.0875 8.325 3.075 9 2.9125 9.4125C2.75 9.825 2.2375 10.3625 1.7625 10.85C0.9375 11.7125 0 12.7 0 14C0 15.3 0.9375 16.2875 1.7625 17.15C2.2375 17.6375 2.725 18.15 2.9125 18.5875C3.1 19.025 3.0875 19.675 3.1 20.3375C3.1125 21.55 3.1375 22.9375 4.1 23.9C5.0625 24.8625 6.45 24.8875 7.6625 24.9C8.325 24.9125 9 24.925 9.4125 25.0875C9.825 25.25 10.3625 25.7625 10.85 26.2375C11.7125 27.0625 12.7 28 14 28C15.3 28 16.2875 27.0625 17.15 26.2375C17.6375 25.7625 18.15 25.275 18.5875 25.0875C19.025 24.9 19.675 24.9125 20.3375 24.9C21.55 24.8875 22.9375 24.8625 23.9 23.9C24.8625 22.9375 24.8875 21.55 24.9 20.3375C24.9125 19.675 24.925 19 25.0875 18.5875C25.25 18.175 25.7625 17.6375 26.2375 17.15C27.0625 16.2875 28 15.3 28 14C28 12.7 27.0625 11.7125 26.2375 10.85ZM20.1875 11.725L12.8625 18.725C12.6731 18.9031 12.4225 19.0016 12.1625 19C11.9063 19.001 11.6598 18.9024 11.475 18.725L7.8125 15.225C7.71092 15.1364 7.6283 15.0281 7.56962 14.9067C7.51094 14.7854 7.47741 14.6534 7.47104 14.5187C7.46466 14.3841 7.48559 14.2495 7.53255 14.1231C7.5795 13.9968 7.65153 13.8812 7.74429 13.7834C7.83706 13.6856 7.94864 13.6075 8.07234 13.5539C8.19604 13.5003 8.3293 13.4723 8.46411 13.4715C8.59892 13.4707 8.7325 13.4972 8.85681 13.5493C8.98112 13.6015 9.09361 13.6783 9.1875 13.775L12.1625 16.6125L18.8125 10.275C19.0069 10.1054 19.2594 10.0174 19.5172 10.0296C19.7749 10.0418 20.018 10.1532 20.1955 10.3404C20.3731 10.5277 20.4714 10.7763 20.4699 11.0343C20.4684 11.2924 20.3672 11.5398 20.1875 11.725Z" fill="#1A3C4A"/>
</svg>
